<svg width="650" height="62.5" viewBox="0 0 650 62.5" xmlns="http://www.w3.org/2000/svg"><g id="svgGroup" stroke-linecap="round" fill-rule="evenodd" font-size="9pt" stroke="#000" stroke-width="0.25mm" fill="#000" style="stroke:#000;stroke-width:0.25mm;fill:#000"><path d="M 362.5 62.5 L 350 62.5 L 350 0 L 362.5 0 L 362.5 12.5 L 375 12.5 L 375 25 L 387.5 25 L 387.5 37.5 L 400 37.5 L 400 0 L 412.5 0 L 412.5 62.5 L 400 62.5 L 400 50 L 387.5 50 L 387.5 37.5 L 375 37.5 L 375 25 L 362.5 25 L 362.5 62.5 Z M 575 62.5 L 537.5 62.5 L 537.5 0 L 575 0 L 575 12.5 L 550 12.5 L 550 25 L 575 25 L 575 37.5 L 550 37.5 L 550 50 L 575 50 L 575 62.5 Z M 25 50 L 37.5 50 L 37.5 62.5 L 50 62.5 L 50 50 L 62.5 50 L 62.5 0 L 50 0 L 50 50 L 37.5 50 L 37.5 12.5 L 25 12.5 L 25 50 Z M 162.5 62.5 L 125 62.5 L 125 0 L 162.5 0 L 162.5 12.5 L 175 12.5 L 175 50 L 162.5 50 L 162.5 62.5 Z M 637.5 62.5 L 600 62.5 L 600 0 L 637.5 0 L 637.5 12.5 L 650 12.5 L 650 50 L 637.5 50 L 637.5 62.5 Z M 237.5 62.5 L 212.5 62.5 L 212.5 50 L 200 50 L 200 0 L 212.5 0 L 212.5 50 L 237.5 50 L 237.5 62.5 Z M 312.5 62.5 L 287.5 62.5 L 287.5 50 L 275 50 L 275 0 L 287.5 0 L 287.5 50 L 312.5 50 L 312.5 62.5 Z M 500 62.5 L 487.5 62.5 L 487.5 12.5 L 475 12.5 L 475 0 L 512.5 0 L 512.5 12.5 L 500 12.5 L 500 62.5 Z M 25 62.5 L 12.5 62.5 L 12.5 50 L 0 50 L 0 0 L 12.5 0 L 12.5 50 L 25 50 L 25 62.5 Z M 100 62.5 L 87.5 62.5 L 87.5 0 L 100 0 L 100 62.5 Z M 450 62.5 L 437.5 62.5 L 437.5 0 L 450 0 L 450 62.5 Z M 237.5 50 L 250 50 L 250 0 L 237.5 0 L 237.5 50 Z M 312.5 50 L 325 50 L 325 0 L 312.5 0 L 312.5 50 Z M 612.5 12.5 L 612.5 50 L 637 50 L 637 12.5 L 612.5 12.5 Z M 137.5 12.5 L 137.5 25 L 162 25 L 162 12.5 L 137.5 12.5 Z M 137.5 37.5 L 137.5 50 L 162 50 L 162 37.5 L 137.5 37.5 Z" vector-effect="non-scaling-stroke"/></g></svg>